<svg style="background:#0d1117" width="100" height="100" viewBox="0 0 100 100" fill="none" xmlns="http://www.w3.org/2000/svg"><circle cx="50" cy="50" r="44" fill="#79c0ff" opacity="0.1"></circle><rect x="22" y="22" width="56" height="56" rx="6" fill="#0d1117" stroke="#79c0ff" stroke-width="2"></rect><circle cx="30" cy="30" r="4" fill="#79c0ff" fill-opacity="0.7"></circle><circle cx="50" cy="30" r="4" fill="#79c0ff" fill-opacity="0.7"></circle><circle cx="70" cy="30" r="4" fill="#79c0ff" fill-opacity="0.7"></circle><circle cx="30" cy="50" r="4" fill="#79c0ff" fill-opacity="0.7"></circle><circle cx="50" cy="50" r="4" fill="#79c0ff" fill-opacity="0.7"></circle><circle cx="70" cy="50" r="4" fill="#79c0ff" fill-opacity="0.7"></circle><circle cx="30" cy="70" r="4" fill="#79c0ff" fill-opacity="0.7"></circle><circle cx="50" cy="70" r="4" fill="#79c0ff" fill-opacity="0.7"></circle><circle cx="70" cy="70" r="4" fill="#79c0ff" fill-opacity="0.7"></circle><line x1="30" y1="30" x2="50" y2="30" stroke="#79c0ff" stroke-width="1" opacity="0.3"></line><line x1="50" y1="30" x2="70" y2="30" stroke="#79c0ff" stroke-width="1" opacity="0.3"></line><line x1="30" y1="50" x2="50" y2="50" stroke="#79c0ff" stroke-width="1" opacity="0.3"></line><line x1="50" y1="50" x2="70" y2="50" stroke="#79c0ff" stroke-width="1" opacity="0.3"></line><line x1="30" y1="70" x2="50" y2="70" stroke="#79c0ff" stroke-width="1" opacity="0.3"></line><line x1="50" y1="70" x2="70" y2="70" stroke="#79c0ff" stroke-width="1" opacity="0.3"></line><line x1="30" y1="30" x2="30" y2="50" stroke="#79c0ff" stroke-width="1" opacity="0.3"></line><line x1="50" y1="30" x2="50" y2="50" stroke="#79c0ff" stroke-width="1" opacity="0.3"></line><line x1="70" y1="30" x2="70" y2="50" stroke="#79c0ff" stroke-width="1" opacity="0.3"></line><line x1="30" y1="50" x2="30" y2="70" stroke="#79c0ff" stroke-width="1" opacity="0.3"></line><line x1="50" y1="50" x2="50" y2="70" stroke="#79c0ff" stroke-width="1" opacity="0.3"></line><line x1="70" y1="50" x2="70" y2="70" stroke="#79c0ff" stroke-width="1" opacity="0.3"></line><circle cx="50" cy="50" r="7" fill="#79c0ff" fill-opacity="0.9"></circle></svg>