<svg style="background:#0d1117" width="100" height="100" viewBox="0 0 100 100" fill="none" xmlns="http://www.w3.org/2000/svg"><circle cx="50" cy="50" r="44" fill="#79c0ff" opacity="0.08"></circle><circle cx="50" cy="50" r="38" stroke="#79c0ff" stroke-width="1.5" fill="none" opacity="0.8" stroke-dasharray="none"></circle><circle cx="50" cy="50" r="28" stroke="#79c0ff" stroke-width="1.2" fill="none" opacity="0.6000000000000001" stroke-dasharray="none"></circle><circle cx="50" cy="50" r="18" stroke="#79c0ff" stroke-width="0.9" fill="none" opacity="0.4" stroke-dasharray="3 3"></circle><circle cx="88" cy="50" r="4" fill="#79c0ff" opacity="0.6"></circle><circle cx="69" cy="82.90896534380866" r="4" fill="#79c0ff" opacity="0.6599999999999999"></circle><circle cx="31.000000000000007" cy="82.90896534380867" r="4" fill="#79c0ff" opacity="0.72"></circle><circle cx="12" cy="50.00000000000001" r="4" fill="#79c0ff" opacity="0.78"></circle><circle cx="30.999999999999982" cy="17.09103465619134" r="4" fill="#79c0ff" opacity="0.84"></circle><circle cx="69" cy="17.091034656191333" r="4" fill="#79c0ff" opacity="0.8999999999999999"></circle><line x1="78" y1="50" x2="88" y2="50" stroke="#79c0ff" stroke-width="1.5" opacity="0.5"></line><line x1="64" y1="74.24871130596428" x2="69" y2="82.90896534380866" stroke="#79c0ff" stroke-width="1.5" opacity="0.5"></line><line x1="36.00000000000001" y1="74.24871130596429" x2="31.000000000000007" y2="82.90896534380867" stroke="#79c0ff" stroke-width="1.5" opacity="0.5"></line><line x1="22" y1="50" x2="12" y2="50.00000000000001" stroke="#79c0ff" stroke-width="1.5" opacity="0.5"></line><line x1="35.999999999999986" y1="25.751288694035722" x2="30.999999999999982" y2="17.09103465619134" stroke="#79c0ff" stroke-width="1.5" opacity="0.5"></line><line x1="64" y1="25.75128869403572" x2="69" y2="17.091034656191333" stroke="#79c0ff" stroke-width="1.5" opacity="0.5"></line><circle cx="50" cy="50" r="7" fill="#79c0ff" opacity="0.9"></circle><circle cx="50" cy="50" r="3" fill="#0d1117"></circle></svg>