<svg style="background:#0d1117" width="100" height="100" viewBox="0 0 100 100" fill="none" xmlns="http://www.w3.org/2000/svg"><circle cx="50" cy="50" r="44" fill="#d2a8ff" opacity="0.1"></circle><path d="M50 5 L54 12 L60 12 L56 17 L58 25 L50 21 L42 25 L44 17 L40 12 L46 12 Z" fill="#d2a8ff" fill-opacity="0.9"></path><path d="M26 25 L28 28.5 L31 28.5 L29 31 L30 35 L26 33 L22 35 L23 31 L21 28.5 L24 28.5 Z" fill="#d2a8ff" fill-opacity="0.5"></path><path d="M74 25 L76 28.5 L79 28.5 L77 31 L78 35 L74 33 L70 35 L71 31 L69 28.5 L72 28.5 Z" fill="#d2a8ff" fill-opacity="0.5"></path><path d="M17 50 L19 53.5 L22 53.5 L20 56 L21 60 L17 58 L13 60 L14 56 L12 53.5 L15 53.5 Z" fill="#d2a8ff" fill-opacity="0.5"></path><path d="M83 50 L85 53.5 L88 53.5 L86 56 L87 60 L83 58 L79 60 L80 56 L78 53.5 L81 53.5 Z" fill="#d2a8ff" fill-opacity="0.5"></path><path d="M30 70 L32 73.5 L35 73.5 L33 76 L34 80 L30 78 L26 80 L27 76 L25 73.5 L28 73.5 Z" fill="#d2a8ff" fill-opacity="0.5"></path><path d="M70 70 L72 73.5 L75 73.5 L73 76 L74 80 L70 78 L66 80 L67 76 L65 73.5 L68 73.5 Z" fill="#d2a8ff" fill-opacity="0.5"></path></svg>